# xmcd
#
# Track frame offsets:
#	150
#	19940
#	33905
#	52445
#	70042
#	103435
#	116835
#	124182
#	149095
#	181590
#	201977
#	222905
#	239185
#	264467
#	283405
#	305302
#
# Disc length: 4567 seconds
#
# Revision: 4
# Processed by: cddbd v1.5.1PL0 Copyright (c) Steve Scherf et al.
# Submitted via: EasyCDDAExtractor 8.2.1.1
#
DISCID=0c11d510
DTITLE=Steve Earle And The Dukes - Shut Up And Die Like An Aviator
DYEAR=1991
DGENRE=Country
TTITLE0=Good Ol' Boy (Gettin' Tough)
TTITLE1=Devil's Right Hand
TTITLE2=I Ain't Ever Satisfied
TTITLE3=Someday
TTITLE4=West Nashville Boogie
TTITLE5=Snake Oil
TTITLE6=Blue Yodel #9
TTITLE7=The Other Kind
TTITLE8=Billy Austin
TTITLE9=Copperhead Road
TTITLE10=Fearless Heart
TTITLE11=Guitar Town
TTITLE12=I Love You Too Much
TTITLE13=She's About A Mover
TTITLE14=The Rain Came Down
TTITLE15=Dead Flowers
EXTD=Live album YEAR: 1991 ID3G: 2
EXTT0=
EXTT1=
EXTT2=
EXTT3=
EXTT4=
EXTT5=
EXTT6=
EXTT7=
EXTT8=
EXTT9=
EXTT10=
EXTT11=
EXTT12=
EXTT13=
EXTT14=
EXTT15=
PLAYORDER=
